# xmcd
#
# Track frame offsets:
#	150
#	23784
#	48210
#	71987
#	97277
#	121521
#	143368
#	168730
#	193912
#	211138
#	235346
#	265244
#
# Disc length: 3724 seconds
#
# Revision: 0
# Processed by: cddbd v1.5.2PL0 Copyright (c) Steve Scherf et al.
# Submitted via: Jack! The Knife
#
DISCID=ac0e8a0c
DTITLE=Domain - The Sixth Dimension
DYEAR=2003
DGENRE=Heavy Metal
TTITLE0=World Gone Crazy
TTITLE1=Your Favourite Curse
TTITLE2=Kings Tears
TTITLE3=One Perfect Moment
TTITLE4=Burning Red
TTITLE5=Warpath
TTITLE6=The Machine
TTITLE7=Skylighter
TTITLE8=Young Hearts Can Fly
TTITLE9=Last Exit Moon
TTITLE10=Talk To The Wind
TTITLE11=Rats In The Cellar
EXTD=
EXTT0=
EXTT1=
EXTT2=
EXTT3=
EXTT4=
EXTT5=
EXTT6=
EXTT7=
EXTT8=
EXTT9=
EXTT10=
EXTT11=
PLAYORDER=
